<?xml version="1.0" encoding="UTF-8"?>
<svg id="Laag_1" data-name="Laag 1" xmlns="http://www.w3.org/2000/svg" viewBox="0 0 675.15 164.64">
  <defs>
    <style>
      .cls-1 {
        fill: #009fe3;
      }

      .cls-2 {
        fill: #003254;
      }

      .cls-3 {
        fill: #bb1621;
      }
    </style>
  </defs>
  <g>
    <path class="cls-1" d="m204.29,5.88h7.13l10.2,27.27,10.29-27.27h6.83l-13.86,34.64h-6.88l-13.71-34.64Z"/>
    <path class="cls-1" d="m260.69,17.46c2.13,2.41,3.19,5.79,3.19,10.15,0,.86-.02,1.5-.05,1.93h-19.55c.43,1.88,1.31,3.36,2.65,4.43,1.34,1.07,2.98,1.61,4.92,1.61,1.35,0,2.65-.25,3.88-.77,1.24-.51,2.32-1.24,3.24-2.2l3.46,3.61c-1.32,1.45-2.93,2.57-4.83,3.37s-4,1.19-6.31,1.19c-2.71,0-5.09-.56-7.15-1.68-2.06-1.12-3.66-2.7-4.78-4.73-1.12-2.03-1.68-4.36-1.68-7s.57-4.98,1.71-7.03c1.14-2.05,2.73-3.64,4.78-4.78,2.05-1.14,4.37-1.71,6.98-1.71,4.22,0,7.4,1.21,9.53,3.61Zm-2.7,7.77c-.07-1.95-.71-3.5-1.93-4.65-1.22-1.15-2.84-1.73-4.85-1.73-1.88,0-3.46.57-4.73,1.71s-2.05,2.7-2.35,4.68h13.86Z"/>
    <path class="cls-1" d="m279.5,15.21c1.53-.91,3.32-1.38,5.37-1.41v6.24c-2.74-.16-4.93.47-6.56,1.9-1.63,1.44-2.45,3.37-2.45,5.82v12.77h-6.43V14.05h6.43v5.1c.89-1.72,2.1-3.03,3.64-3.93Z"/>
    <path class="cls-1" d="m301.07,19.44c-1.37-.43-2.63-.64-3.79-.64-1.09,0-1.96.19-2.6.57-.65.38-.97.96-.97,1.76s.4,1.46,1.21,1.91c.81.44,2.09.92,3.84,1.41,1.85.56,3.37,1.11,4.55,1.66,1.19.54,2.22,1.35,3.09,2.43s1.31,2.48,1.31,4.23c0,2.57-.99,4.55-2.97,5.94-1.98,1.39-4.47,2.08-7.47,2.08-2.05,0-4.04-.32-5.99-.96-1.95-.64-3.6-1.56-4.95-2.75l2.23-4.5c1.19,1.02,2.61,1.82,4.25,2.4,1.65.58,3.22.87,4.7.87,1.19,0,2.14-.21,2.84-.62.71-.41,1.06-1.03,1.06-1.86,0-.92-.41-1.62-1.23-2.08-.83-.46-2.16-.97-4.01-1.53-1.78-.53-3.23-1.05-4.35-1.56s-2.1-1.29-2.92-2.33-1.24-2.4-1.24-4.08c0-2.61.95-4.59,2.84-5.96,1.9-1.37,4.28-2.05,7.15-2.05,1.75,0,3.47.25,5.17.74,1.7.49,3.21,1.19,4.53,2.08l-2.33,4.65c-1.29-.76-2.62-1.35-3.98-1.78Z"/>
    <path class="cls-1" d="m336.34,16.55c1.75,1.83,2.62,4.31,2.62,7.45v16.53h-6.48v-14.65c0-1.85-.53-3.31-1.58-4.38-1.06-1.07-2.49-1.61-4.31-1.61-2.15.03-3.84.76-5.07,2.18-1.24,1.42-1.86,3.23-1.86,5.44v13.02h-6.43V14.05h6.43v4.95c1.81-3.4,4.98-5.13,9.5-5.2,3.04,0,5.43.92,7.18,2.75Z"/>
    <path class="cls-1" d="m366.75,17.46c2.13,2.41,3.19,5.79,3.19,10.15,0,.86-.02,1.5-.05,1.93h-19.55c.43,1.88,1.31,3.36,2.65,4.43,1.34,1.07,2.98,1.61,4.92,1.61,1.35,0,2.65-.25,3.89-.77,1.24-.51,2.32-1.24,3.24-2.2l3.47,3.61c-1.32,1.45-2.93,2.57-4.83,3.37-1.9.79-4,1.19-6.31,1.19-2.7,0-5.09-.56-7.15-1.68-2.07-1.12-3.66-2.7-4.78-4.73-1.12-2.03-1.68-4.36-1.68-7s.57-4.98,1.7-7.03c1.14-2.05,2.73-3.64,4.78-4.78,2.05-1.14,4.37-1.71,6.98-1.71,4.22,0,7.4,1.21,9.53,3.61Zm-2.7,7.77c-.07-1.95-.71-3.5-1.93-4.65-1.22-1.15-2.84-1.73-4.85-1.73-1.88,0-3.46.57-4.73,1.71s-2.05,2.7-2.35,4.68h13.86Z"/>
    <path class="cls-1" d="m375.73,3.8h6.43v36.72h-6.43V3.8Z"/>
    <path class="cls-1" d="m390.68,3.8h6.43v36.72h-6.43V3.8Z"/>
    <path class="cls-1" d="m411.17,3.75c.69.73,1.04,1.65,1.04,2.77s-.34,2-1.04,2.72-1.57,1.09-2.62,1.09-1.93-.36-2.62-1.09-1.04-1.63-1.04-2.72.34-2.05,1.04-2.77c.69-.72,1.57-1.09,2.62-1.09s1.93.36,2.62,1.09Zm-5.79,10.29h6.43v26.48h-6.43V14.05Z"/>
    <path class="cls-1" d="m442.89,16.55c1.75,1.83,2.62,4.31,2.62,7.45v16.53h-6.48v-14.65c0-1.85-.53-3.31-1.58-4.38s-2.49-1.61-4.31-1.61c-2.14.03-3.84.76-5.07,2.18-1.24,1.42-1.86,3.23-1.86,5.44v13.02h-6.43V14.05h6.43v4.95c1.81-3.4,4.98-5.13,9.5-5.2,3.04,0,5.43.92,7.18,2.75Z"/>
    <path class="cls-1" d="m476.94,14.05v23.95c0,2.51-.57,4.69-1.71,6.56s-2.75,3.3-4.85,4.31c-2.1,1.01-4.53,1.51-7.3,1.51-4.03,0-7.75-1.17-11.18-3.51l2.57-4.65c2.51,1.85,5.26,2.77,8.27,2.77,2.37,0,4.26-.61,5.67-1.83,1.4-1.22,2.1-2.89,2.1-5v-3.12c-.89,1.35-2.05,2.38-3.46,3.09-1.42.71-3.07,1.06-4.95,1.06-2.31,0-4.35-.53-6.14-1.61-1.78-1.07-3.17-2.57-4.16-4.5-.99-1.93-1.48-4.15-1.48-6.66s.49-4.66,1.48-6.56c.99-1.9,2.38-3.37,4.16-4.43s3.83-1.58,6.14-1.58c1.85,0,3.49.36,4.93,1.09,1.44.73,2.6,1.75,3.49,3.07v-3.96h6.43Zm-8.39,17.99c1.3-1.4,1.96-3.23,1.96-5.47s-.65-4.07-1.96-5.47c-1.3-1.4-2.99-2.1-5.07-2.1s-3.77.71-5.07,2.13c-1.3,1.42-1.97,3.23-2,5.44.03,2.24.7,4.07,2,5.47,1.3,1.4,2.99,2.1,5.07,2.1s3.77-.7,5.07-2.1Z"/>
    <path class="cls-1" d="m496.22,19.44c-1.37-.43-2.63-.64-3.79-.64-1.09,0-1.96.19-2.6.57-.65.38-.97.96-.97,1.76s.4,1.46,1.21,1.91c.81.44,2.09.92,3.84,1.41,1.85.56,3.37,1.11,4.55,1.66,1.19.54,2.22,1.35,3.09,2.43s1.31,2.48,1.31,4.23c0,2.57-.99,4.55-2.97,5.94-1.98,1.39-4.47,2.08-7.47,2.08-2.05,0-4.04-.32-5.99-.96-1.95-.64-3.6-1.56-4.95-2.75l2.23-4.5c1.19,1.02,2.61,1.82,4.25,2.4,1.65.58,3.22.87,4.7.87,1.19,0,2.14-.21,2.84-.62.71-.41,1.06-1.03,1.06-1.86,0-.92-.41-1.62-1.23-2.08-.83-.46-2.16-.97-4.01-1.53-1.78-.53-3.23-1.05-4.35-1.56s-2.1-1.29-2.92-2.33-1.24-2.4-1.24-4.08c0-2.61.95-4.59,2.84-5.96,1.9-1.37,4.28-2.05,7.15-2.05,1.75,0,3.47.25,5.17.74,1.7.49,3.21,1.19,4.53,2.08l-2.33,4.65c-1.29-.76-2.62-1.35-3.98-1.78Z"/>
    <path class="cls-1" d="m530.52,15.56c1.9,1.14,3.37,2.73,4.4,4.78,1.04,2.05,1.56,4.4,1.56,7.08s-.51,4.97-1.53,6.98c-1.02,2.01-2.47,3.58-4.35,4.7-1.88,1.12-4.06,1.68-6.53,1.68-1.98,0-3.73-.39-5.25-1.16-1.52-.77-2.77-1.9-3.76-3.39v13.91h-6.43V14.05h6.43v4.36c.96-1.49,2.18-2.61,3.69-3.39,1.5-.78,3.24-1.16,5.22-1.16,2.48,0,4.66.57,6.56,1.71Zm-2.65,17.42c1.39-1.5,2.08-3.42,2.08-5.77s-.69-4.26-2.08-5.74c-1.38-1.48-3.17-2.23-5.34-2.23s-4.01.74-5.4,2.23c-1.39,1.49-2.08,3.4-2.08,5.74s.69,4.31,2.08,5.79c1.38,1.49,3.18,2.23,5.4,2.23s3.96-.75,5.34-2.25Z"/>
    <path class="cls-1" d="m542.32,3.8h6.43v36.72h-6.43V3.8Z"/>
    <path class="cls-1" d="m572.66,40.53v-3.22c-.92,1.16-2.11,2.03-3.56,2.62-1.45.59-3.12.89-5,.89s-3.47-.35-4.87-1.06c-1.41-.71-2.48-1.69-3.24-2.94-.76-1.25-1.14-2.66-1.14-4.21,0-2.47.87-4.41,2.62-5.82,1.75-1.4,4.22-2.12,7.42-2.15h7.72v-.69c0-1.55-.51-2.75-1.54-3.61-1.02-.86-2.51-1.29-4.45-1.29-2.51,0-5.13.82-7.87,2.47l-2.33-4.45c2.08-1.15,3.97-1.99,5.67-2.5,1.7-.51,3.69-.77,5.96-.77,3.43,0,6.1.82,7.99,2.47,1.9,1.65,2.86,3.96,2.89,6.93l.05,17.32h-6.33Zm-2.28-5.96c1.32-.87,2.06-1.96,2.23-3.24v-2.38h-6.68c-1.72,0-2.98.26-3.79.77-.81.51-1.21,1.35-1.21,2.5s.42,2.01,1.26,2.67,1.99.99,3.44.99c1.85,0,3.43-.44,4.75-1.31Z"/>
    <path class="cls-1" d="m609.33,16.55c1.75,1.83,2.62,4.31,2.62,7.45v16.53h-6.48v-14.65c0-1.85-.53-3.31-1.58-4.38-1.06-1.07-2.49-1.61-4.31-1.61-2.15.03-3.84.76-5.07,2.18-1.24,1.42-1.86,3.23-1.86,5.44v13.02h-6.43V14.05h6.43v4.95c1.81-3.4,4.98-5.13,9.5-5.2,3.04,0,5.43.92,7.18,2.75Z"/>
  </g>
  <path class="cls-2" d="m233.47,65.5c2.79,1.55,4.99,3.67,6.61,6.36,1.62,2.69,2.42,5.65,2.42,8.88s-.81,6.21-2.42,8.93c-1.62,2.72-3.82,4.87-6.61,6.43-2.79,1.57-5.85,2.35-9.18,2.35s-6.39-.78-9.18-2.35c-2.79-1.57-4.99-3.71-6.61-6.43-1.62-2.72-2.43-5.7-2.43-8.93s.81-6.19,2.43-8.88c1.62-2.69,3.81-4.81,6.58-6.36,2.77-1.55,5.84-2.33,9.21-2.33s6.39.78,9.18,2.33Zm-15.84,3.71c-2.06,1.19-3.7,2.8-4.92,4.83-1.22,2.03-1.83,4.27-1.83,6.71s.61,4.69,1.83,6.73c1.22,2.05,2.86,3.67,4.92,4.87,2.06,1.21,4.3,1.81,6.71,1.81s4.63-.6,6.66-1.81c2.03-1.2,3.64-2.83,4.85-4.87,1.2-2.05,1.81-4.29,1.81-6.73s-.6-4.68-1.81-6.71c-1.21-2.03-2.82-3.64-4.85-4.83-2.03-1.19-4.25-1.78-6.66-1.78s-4.64.59-6.71,1.78Z"/>
  <path class="cls-2" d="m270.66,74.49c1.75,1.8,2.62,4.28,2.62,7.45v16.18h-4.6v-14.95c0-2.21-.62-3.93-1.86-5.17-1.24-1.24-2.94-1.86-5.12-1.86-2.34.03-4.25.78-5.72,2.25-1.47,1.47-2.3,3.37-2.5,5.72v14.01h-4.6v-26.18h4.6v5.54c1.75-3.73,5.06-5.63,9.95-5.69,3.07,0,5.47.9,7.22,2.7Z"/>
  <path class="cls-2" d="m305.9,61.39v36.72h-4.6v-5.2c-.99,1.75-2.32,3.09-3.98,4.03-1.67.94-3.61,1.41-5.82,1.41-2.47,0-4.66-.57-6.56-1.71-1.9-1.14-3.37-2.72-4.43-4.75-1.06-2.03-1.59-4.35-1.59-6.95s.53-4.86,1.59-6.85c1.05-2,2.53-3.55,4.43-4.68,1.9-1.12,4.06-1.68,6.51-1.68,2.25,0,4.21.46,5.89,1.39s3,2.26,3.96,4.01v-15.74h4.6Zm-8.88,31.82c1.34-.79,2.39-1.9,3.14-3.32.76-1.42,1.14-3.02,1.14-4.8s-.38-3.43-1.14-4.85c-.76-1.42-1.81-2.52-3.14-3.32-1.34-.79-2.86-1.19-4.58-1.19s-3.24.4-4.58,1.21c-1.34.81-2.38,1.92-3.14,3.34-.76,1.42-1.14,3.02-1.14,4.8s.38,3.38,1.14,4.8c.76,1.42,1.81,2.52,3.14,3.32,1.34.79,2.86,1.19,4.58,1.19s3.24-.4,4.58-1.19Z"/>
  <path class="cls-2" d="m334.85,75.38c2.08,2.39,3.12,5.72,3.12,9.97,0,.66-.02,1.15-.05,1.48h-20.69c.36,2.34,1.34,4.21,2.95,5.59,1.6,1.39,3.57,2.08,5.91,2.08,1.55,0,2.99-.28,4.33-.84,1.34-.56,2.5-1.35,3.49-2.38l2.52,2.62c-1.29,1.39-2.84,2.46-4.65,3.22s-3.83,1.14-6.04,1.14c-2.57,0-4.86-.55-6.85-1.66-2-1.11-3.55-2.66-4.65-4.68-1.11-2.01-1.66-4.31-1.66-6.88s.55-4.86,1.66-6.85c1.11-2,2.65-3.56,4.63-4.7,1.98-1.14,4.24-1.71,6.78-1.71,4.06,0,7.13,1.2,9.21,3.59Zm-1.04,7.89c-.13-2.37-.92-4.25-2.37-5.62-1.45-1.37-3.37-2.05-5.74-2.05s-4.23.69-5.77,2.08c-1.54,1.39-2.45,3.25-2.75,5.59h16.63Z"/>
  <path class="cls-2" d="m352.52,73.3c1.58-.97,3.46-1.48,5.64-1.51v4.45c-2.67-.1-4.83.59-6.49,2.08-1.65,1.48-2.59,3.48-2.82,5.99v13.81h-4.6v-26.18h4.6v5.64c.86-1.88,2.08-3.31,3.66-4.28Z"/>
  <path class="cls-2" d="m360.14,71.94h4.8l7.32,21.63,7.23-21.63h4.8l7.28,21.63,7.23-21.63h4.75l-9.65,26.18h-4.8l-7.23-20.59-7.22,20.59h-4.8l-9.7-26.18Z"/>
  <path class="cls-2" d="m412.18,62.34c.54.56.82,1.27.82,2.13s-.27,1.57-.82,2.13c-.54.56-1.23.84-2.05.84s-1.51-.28-2.06-.84c-.54-.56-.82-1.27-.82-2.13s.27-1.57.82-2.13,1.23-.84,2.06-.84,1.51.28,2.05.84Zm-4.33,9.6h4.6v26.18h-4.6v-26.18Z"/>
  <path class="cls-2" d="m417.45,103.96c1.25.03,2.21-.4,2.87-1.29s.99-2.19.99-3.91v-26.83h4.65v27.47c0,2.71-.65,4.79-1.96,6.26-1.3,1.47-3.14,2.2-5.52,2.2-1.49,0-2.98-.3-4.5-.89l1.09-3.51c.72.26,1.52.43,2.38.5Zm8.19-41.62c.54.56.82,1.27.82,2.13s-.27,1.57-.82,2.13c-.54.56-1.23.84-2.05.84s-1.51-.28-2.05-.84c-.54-.56-.82-1.27-.82-2.13s.27-1.57.82-2.13,1.23-.84,2.05-.84,1.51.28,2.05.84Z"/>
  <path class="cls-2" d="m445.14,76.14c-1.3-.4-2.55-.59-3.74-.59-1.38,0-2.5.26-3.34.77s-1.26,1.3-1.26,2.35.47,1.86,1.41,2.4c.94.54,2.37,1.1,4.28,1.66,1.81.53,3.3,1.06,4.46,1.58,1.15.53,2.14,1.3,2.94,2.33s1.21,2.38,1.21,4.06c0,2.47-.93,4.36-2.8,5.64s-4.18,1.93-6.95,1.93c-1.95,0-3.84-.31-5.67-.94-1.83-.63-3.37-1.52-4.63-2.67l1.73-3.37c1.09.99,2.43,1.78,4.03,2.38,1.6.59,3.16.89,4.68.89s2.74-.28,3.66-.84c.92-.56,1.39-1.42,1.39-2.57s-.49-2.08-1.46-2.67-2.45-1.19-4.43-1.78c-1.75-.49-3.17-1-4.28-1.51-1.11-.51-2.05-1.26-2.82-2.25-.78-.99-1.16-2.28-1.16-3.86,0-2.44.89-4.27,2.67-5.49,1.78-1.22,4.01-1.83,6.68-1.83,1.58,0,3.14.22,4.68.67,1.54.45,2.86,1.05,3.98,1.81l-1.68,3.51c-1.09-.66-2.28-1.19-3.59-1.58Z"/>
  <path class="cls-2" d="m461.52,62.34c.54.56.82,1.27.82,2.13s-.27,1.57-.82,2.13c-.54.56-1.23.84-2.05.84s-1.51-.28-2.06-.84c-.54-.56-.82-1.27-.82-2.13s.27-1.57.82-2.13,1.23-.84,2.06-.84,1.51.28,2.05.84Zm-4.33,9.6h4.6v26.18h-4.6v-26.18Z"/>
  <path class="cls-2" d="m492.53,74.49c1.75,1.8,2.62,4.28,2.62,7.45v16.18h-4.6v-14.95c0-2.21-.62-3.93-1.85-5.17-1.24-1.24-2.95-1.86-5.12-1.86-2.34.03-4.25.78-5.72,2.25-1.47,1.47-2.3,3.37-2.5,5.72v14.01h-4.6v-26.18h4.6v5.54c1.75-3.73,5.07-5.63,9.95-5.69,3.07,0,5.48.9,7.23,2.7Z"/>
  <path class="cls-2" d="m525.15,74.49c1.75,1.8,2.62,4.28,2.62,7.45v16.18h-4.6v-14.95c0-2.21-.62-3.93-1.85-5.17-1.24-1.24-2.95-1.86-5.12-1.86-2.34.03-4.25.78-5.72,2.25-1.47,1.47-2.3,3.37-2.5,5.72v14.01h-4.6v-26.18h4.6v5.54c1.75-3.73,5.07-5.63,9.95-5.69,3.07,0,5.48.9,7.23,2.7Z"/>
  <path class="cls-2" d="m553.82,73.47c2.03,1.12,3.61,2.68,4.75,4.68,1.14,2,1.71,4.28,1.71,6.85s-.57,4.87-1.71,6.88-2.72,3.58-4.75,4.7c-2.03,1.12-4.35,1.68-6.95,1.68s-4.97-.56-7-1.68c-2.03-1.12-3.61-2.68-4.75-4.68-1.14-2-1.71-4.3-1.71-6.9s.57-4.86,1.71-6.85c1.14-2,2.72-3.55,4.75-4.68,2.03-1.12,4.36-1.68,7-1.68s4.92.56,6.95,1.68Zm-11.53,3.51c-1.34.79-2.38,1.89-3.12,3.29-.74,1.4-1.11,2.99-1.11,4.78s.37,3.43,1.11,4.85c.74,1.42,1.78,2.52,3.12,3.29,1.34.78,2.86,1.16,4.58,1.16s3.19-.39,4.53-1.16c1.34-.77,2.38-1.87,3.12-3.29.74-1.42,1.11-3.04,1.11-4.85s-.37-3.37-1.11-4.78c-.74-1.4-1.78-2.5-3.12-3.29-1.34-.79-2.84-1.19-4.53-1.19s-3.24.4-4.58,1.19Z"/>
  <path class="cls-2" d="m561.47,71.94h4.9l7.87,21.63,7.82-21.63h4.65l-10.2,26.18h-4.8l-10.25-26.18Z"/>
  <path class="cls-2" d="m606.36,98.12v-3.66c-1.95,2.57-5,3.86-9.16,3.86-1.81,0-3.41-.35-4.78-1.04-1.37-.69-2.43-1.65-3.17-2.87s-1.11-2.59-1.11-4.11c0-2.34.87-4.2,2.6-5.57,1.73-1.37,4.15-2.07,7.25-2.1h8.32v-1.24c0-1.85-.57-3.27-1.71-4.28s-2.8-1.51-4.97-1.51c-2.64,0-5.33.94-8.07,2.82l-1.93-3.17c1.88-1.22,3.62-2.1,5.22-2.65,1.6-.54,3.51-.82,5.72-.82,3.26,0,5.79.8,7.57,2.4,1.78,1.6,2.69,3.84,2.72,6.71l.05,17.22h-4.55Zm-2.75-5.17c1.5-1.04,2.4-2.42,2.7-4.13v-2.62h-7.67c-2.08,0-3.62.31-4.63.94-1.01.63-1.51,1.62-1.51,2.97s.51,2.43,1.53,3.22c1.02.79,2.39,1.19,4.11,1.19,2.14,0,3.97-.52,5.47-1.56Z"/>
  <path class="cls-2" d="m633.19,96.39c-2.01,1.29-4.06,1.93-6.14,1.93s-3.76-.62-5.05-1.86c-1.29-1.24-1.93-3.11-1.93-5.62v-14.5h-3.71v-3.51h3.71v-7.03h4.65v7.03h8.02v3.51h-8.02v13.66c0,1.45.26,2.49.79,3.12.53.63,1.32.94,2.38.94,1.25,0,2.61-.41,4.06-1.24l1.24,3.56Z"/>
  <path class="cls-2" d="m643.11,62.34c.54.56.82,1.27.82,2.13s-.27,1.57-.82,2.13c-.54.56-1.23.84-2.05.84s-1.51-.28-2.06-.84c-.54-.56-.82-1.27-.82-2.13s.27-1.57.82-2.13,1.23-.84,2.06-.84,1.51.28,2.05.84Zm-4.33,9.6h4.6v26.18h-4.6v-26.18Z"/>
  <path class="cls-2" d="m672.04,75.38c2.08,2.39,3.12,5.72,3.12,9.97,0,.66-.02,1.15-.05,1.48h-20.69c.36,2.34,1.34,4.21,2.94,5.59,1.6,1.39,3.57,2.08,5.91,2.08,1.55,0,2.99-.28,4.33-.84,1.34-.56,2.5-1.35,3.49-2.38l2.52,2.62c-1.29,1.39-2.84,2.46-4.65,3.22-1.81.76-3.83,1.14-6.04,1.14-2.57,0-4.86-.55-6.85-1.66-1.99-1.11-3.55-2.66-4.65-4.68-1.11-2.01-1.66-4.31-1.66-6.88s.55-4.86,1.66-6.85c1.11-2,2.65-3.56,4.63-4.7,1.98-1.14,4.24-1.71,6.78-1.71,4.06,0,7.13,1.2,9.21,3.59Zm-1.04,7.89c-.13-2.37-.92-4.25-2.37-5.62-1.45-1.37-3.37-2.05-5.74-2.05s-4.23.69-5.76,2.08c-1.54,1.39-2.45,3.25-2.75,5.59h16.63Z"/>
  <path class="cls-2" d="m249.58,132.1c1.71,1.82,2.57,4.29,2.57,7.42v16.18h-4.65v-14.95c0-2.21-.6-3.94-1.81-5.2-1.2-1.25-2.86-1.88-4.97-1.88-2.47.07-4.42.94-5.84,2.62-1.42,1.68-2.13,3.84-2.13,6.48v12.92h-4.65v-14.95c0-2.21-.59-3.94-1.78-5.2-1.19-1.25-2.85-1.88-5-1.88-2.47.07-4.43.94-5.86,2.62-1.43,1.68-2.15,3.84-2.15,6.48v12.92h-4.6v-26.18h4.6v5.49c1.72-3.7,4.97-5.58,9.75-5.64,2.41,0,4.41.58,6.01,1.73,1.6,1.16,2.68,2.77,3.24,4.85,1.62-4.32,5.01-6.52,10.19-6.58,3,0,5.36.91,7.08,2.72Z"/>
  <path class="cls-2" d="m280.06,132.97c2.08,2.39,3.12,5.72,3.12,9.97,0,.66-.02,1.15-.05,1.48h-20.69c.36,2.34,1.34,4.21,2.95,5.59,1.6,1.39,3.57,2.08,5.91,2.08,1.55,0,2.99-.28,4.33-.84,1.34-.56,2.5-1.35,3.49-2.38l2.53,2.62c-1.29,1.39-2.84,2.46-4.65,3.22s-3.83,1.14-6.04,1.14c-2.57,0-4.86-.55-6.85-1.66-2-1.11-3.55-2.66-4.65-4.68-1.11-2.01-1.66-4.31-1.66-6.88s.55-4.86,1.66-6.85c1.11-2,2.65-3.56,4.63-4.7,1.98-1.14,4.24-1.71,6.78-1.71,4.06,0,7.13,1.2,9.21,3.59Zm-1.04,7.89c-.13-2.37-.92-4.25-2.38-5.62-1.45-1.37-3.37-2.05-5.74-2.05s-4.23.69-5.77,2.08c-1.53,1.39-2.45,3.25-2.75,5.59h16.63Z"/>
  <path class="cls-2" d="m303.52,153.98c-2.01,1.29-4.06,1.93-6.14,1.93s-3.76-.62-5.05-1.86c-1.29-1.24-1.93-3.11-1.93-5.62v-14.5h-3.71v-3.51h3.71v-7.03h4.65v7.03h8.02v3.51h-8.02v13.66c0,1.45.26,2.49.79,3.12.53.63,1.32.94,2.37.94,1.25,0,2.61-.41,4.06-1.24l1.24,3.56Z"/>
  <path class="cls-2" d="m322.53,121.06h4.75v34.64h-4.75v-34.64Z"/>
  <path class="cls-2" d="m357.67,126.14c-1.75-.77-3.55-1.16-5.4-1.16-2.44,0-4.68.59-6.73,1.78-2.05,1.19-3.66,2.8-4.85,4.83s-1.78,4.27-1.78,6.71.59,4.64,1.78,6.68c1.19,2.05,2.8,3.66,4.85,4.85,2.05,1.19,4.29,1.78,6.73,1.78,1.81,0,3.6-.37,5.35-1.11,1.75-.74,3.3-1.76,4.65-3.04l2.87,3.12c-1.75,1.72-3.78,3.06-6.09,4.03-2.31.97-4.65,1.46-7.03,1.46-3.3,0-6.32-.78-9.06-2.35-2.74-1.57-4.9-3.7-6.48-6.41-1.58-2.7-2.38-5.69-2.38-8.96s.8-6.19,2.4-8.88,3.79-4.81,6.56-6.36c2.77-1.55,5.82-2.33,9.16-2.33,2.41,0,4.74.45,7,1.36,2.26.91,4.21,2.19,5.86,3.83l-2.82,3.42c-1.32-1.39-2.85-2.47-4.6-3.24Z"/>
  <path class="cls-2" d="m367.32,121.06h27.07v4.36h-11.19v30.29h-4.75v-30.29h-11.14v-4.36Z"/>
  <path class="cls-1" d="m158.65,57.25s-.03-.07-.03-.11c0-.07-.02-.14-.04-.21-.01-.04,0-.08-.01-.11-.01-.04-.05-.05-.07-.09-.04-.07-.07-.12-.12-.18-.02-.03-.03-.07-.05-.1L108.18,6.32s-.07-.03-.1-.05c-.09-.07-.18-.11-.28-.15-.1-.04-.2-.08-.31-.09-.04,0-.07-.03-.11-.03h-50.13c-.05,0-.09.02-.14.03-.05,0-.1.02-.15.03-.19.05-.37.14-.51.27L6.32,56.46c-.14.14-.22.32-.27.51-.01.05-.02.09-.03.14,0,.05-.03.09-.03.14v50.14s.03.07.03.11c.01.11.05.2.09.31.04.1.08.2.15.28.02.03.03.07.05.1l50.14,50.13s.08.05.12.08c.04.03.08.06.12.08.04.02.07.06.11.08,0,0,0,0,0,0,0,0,0,0,0,0,.14.06.28.09.43.09h50.13c.15,0,.29-.03.43-.09.14-.06.26-.14.37-.24l50.13-50.13c.14-.14.22-.32.27-.51.01-.05.02-.09.03-.14,0-.05.03-.09.03-.14v-50.14Zm-26.99,24.27l-23.15,23.15v-46.3h46.29l-23.15,23.15Zm-73.28-23.15h47.88v47.89h-47.88v-47.89Zm47.88-2.25h-46.29L106.26,9.83v46.29Zm-50.13,50.14H9.83l46.3-46.3v46.3Zm2.25,2.25h46.29l-46.29,46.29v-46.29Zm74.87-25.4l23.15-23.15v46.3h-46.29l23.15-23.15ZM108.51,9.83l46.29,46.29h-46.29V9.83Zm-50.13-1.59h46.29l-46.29,46.29V8.24Zm-2.25,1.59v46.29H9.83L56.13,9.83ZM8.24,58.38h46.3L8.24,104.67v-46.3Zm47.89,50.14v46.29L9.83,108.51h46.3Zm50.13,1.59v46.29h-46.29l46.29-46.29Zm2.25,44.7v-46.29h46.29l-46.29,46.29Z"/>
  <g>
    <circle class="cls-3" cx="57.25" cy="57.25" r="7.12"/>
    <circle class="cls-3" cx="7.12" cy="57.25" r="7.12"/>
    <circle class="cls-3" cx="107.39" cy="57.25" r="7.12"/>
    <circle class="cls-3" cx="107.39" cy="7.12" r="7.12"/>
    <circle class="cls-3" cx="57.25" cy="107.39" r="7.12"/>
    <circle class="cls-3" cx="57.25" cy="157.52" r="7.12"/>
    <circle class="cls-3" cx="107.39" cy="107.39" r="7.12"/>
    <circle class="cls-3" cx="157.52" cy="107.39" r="7.12"/>
  </g>
</svg>